<svg id="Layer_1" data-name="Layer 1" xmlns="http://www.w3.org/2000/svg" viewBox="0 0 133 60"><defs><style>.logo-svg{fill:#fff;}</style></defs><title>Fonix logo</title><path class="logo-svg" d="M8.8,8.78a30.35,30.35,0,0,0-3.68,4.45l0,0.09a7.13,7.13,0,0,0,5.23,8.2,7.21,7.21,0,0,0,6.06-1.2l0.23-.19a16.92,16.92,0,0,1,1.64-1.9,16.6,16.6,0,1,1-2.11,21h0a16.52,16.52,0,0,1-1.6-3.06h0a16.6,16.6,0,0,1-1-3.69h0c-0.06-.42-0.11-0.85-0.14-1.28A8.71,8.71,0,0,1,0,29.14,30.09,30.09,0,0,0,.32,34.4h0A30,30,0,0,0,2.1,41h0A29.88,29.88,0,0,0,5,46.59H5A30,30,0,1,0,8.8,8.78Zm6.81,8.66a4.24,4.24,0,1,1-.45-6A4.25,4.25,0,0,1,15.62,17.44ZM5.33,31.53a7.15,7.15,0,0,0,8.11-2.77c0-.32.05-0.65,0.09-1h0c0-.2.06-0.4,0.09-0.6a8.73,8.73,0,0,1-7.15.65,8.82,8.82,0,0,1-1.58-.73A8.67,8.67,0,0,1,1,22.22Q0.65,23.6.42,25A7.14,7.14,0,0,0,5.33,31.53Zm0.38-5.78a7.12,7.12,0,0,0,8.51-.94,16.33,16.33,0,0,1,.79-2h0a8.81,8.81,0,0,1-5,.22A8.72,8.72,0,0,1,3.5,15.92q-0.66,1.23-1.19,2.52A7.13,7.13,0,0,0,5.71,25.75Zm66.56-4V39.83h3.07V25.18h4V22.35h-4V21.71c0-3.69,1.78-4.4,4.59-4.11V14.8C75.37,14.39,72.27,16.54,72.27,21.71Zm41.82,18.09h3.07V21.13h-3.07V39.79Zm13.23-9.51,5.37-9.22h-3.36l-1.75,3-2,3.76-1.94-3.73-1.78-3h-3.46l5.4,9.25-5.59,9.48h3.36l1.88-3.24,2.1-4,2.1,4,1.91,3.28H133ZM115.62,14.51a1.78,1.78,0,1,0,1.79,1.78A1.78,1.78,0,0,0,115.62,14.51ZM87.43,20.78c-4.37,0-7.08,1.83-7.08,6.81V33c0,5.11,2,7.16,7.08,7.16s7.08-2.06,7.08-7.16V27.59C94.52,22.61,91.8,20.78,87.43,20.78Zm4,12.17c0,3.4-1.16,4.5-4,4.5s-4-1.09-4-4.5V27.59c0-3.41,1.46-4.08,4-4.08s4,0.67,4,4.08V33Zm13.42-12.17c-1.84,0-3.72.39-4.85,2.22l-0.19-2H97.07V39.79h3.1V27.56c0-2.67,1.84-4,4.17-4s3.69,1.35,3.69,4V39.79h3.1V27.56C111.14,22.54,109,20.78,104.86,20.78Z"/></svg>
